<svg width="20" height="14" viewBox="0 0 20 14" fill="none" xmlns="http://www.w3.org/2000/svg">
<path d="M8.50085 0V3.33901C7.58092 3.33901 6.88813 3.46962 6.42249 3.73083C5.94549 4.01476 5.6502 4.33844 5.53663 4.70187C5.4117 5.0653 5.33788 5.78648 5.31516 6.86542H8.50085V13.0835H0V7.78535C0 5.86599 0.0681431 4.55991 0.204429 3.86712C0.340715 3.16298 0.738217 2.46451 1.39693 1.77172C2.05565 1.10165 2.85633 0.636002 3.79898 0.374787C4.71891 0.124929 6.2862 0 8.50085 0ZM20 0V3.33901C19.0914 3.33901 18.4043 3.46962 17.9387 3.73083C17.4503 4.00341 17.1493 4.32709 17.0358 4.70187C16.9108 5.07666 16.8427 5.79784 16.8313 6.86542H20V13.0835H11.5162V7.78535C11.5162 5.86599 11.5843 4.55991 11.7206 3.86712C11.8569 3.16298 12.2544 2.46451 12.9131 1.77172C13.5718 1.10165 14.3725 0.636002 15.3152 0.374787C16.2351 0.124929 17.7967 0 20 0Z" fill="#7E9870"/>
</svg>
