<svg width="37" height="24" viewBox="0 0 37 24" fill="none" xmlns="http://www.w3.org/2000/svg">
<path d="M15.5938 0V6.125C13.9062 6.125 12.6354 6.36458 11.7812 6.84375C10.9062 7.36458 10.3646 7.95833 10.1562 8.625C9.92708 9.29167 9.79167 10.6146 9.75 12.5938H15.5938V24H0V14.2812C0 10.7604 0.125 8.36458 0.375 7.09375C0.625 5.80208 1.35417 4.52083 2.5625 3.25C3.77083 2.02083 5.23958 1.16667 6.96875 0.6875C8.65625 0.229167 11.5312 0 15.5938 0ZM36.6875 0V6.125C35.0208 6.125 33.7604 6.36458 32.9062 6.84375C32.0104 7.34375 31.4583 7.9375 31.25 8.625C31.0208 9.3125 30.8958 10.6354 30.875 12.5938H36.6875V24H21.125V14.2812C21.125 10.7604 21.25 8.36458 21.5 7.09375C21.75 5.80208 22.4792 4.52083 23.6875 3.25C24.8958 2.02083 26.3646 1.16667 28.0938 0.6875C29.7812 0.229167 32.6458 0 36.6875 0Z" fill="#288600"/>
</svg>
