<svg width="20" height="14" viewBox="0 0 20 14" fill="none" xmlns="http://www.w3.org/2000/svg">
<path d="M11.4991 13.0835V9.74448C12.4191 9.74448 13.1119 9.61388 13.5775 9.35266C14.0545 9.06873 14.3498 8.74505 14.4634 8.38162C14.5883 8.01819 14.6621 7.29701 14.6848 6.21808H11.4991L11.4991 2.09808e-05L20 2.09808e-05V5.29815C20 7.21751 19.9319 8.52359 19.7956 9.21638C19.6593 9.92052 19.2618 10.619 18.6031 11.3118C17.9443 11.9818 17.1437 12.4475 16.201 12.7087C15.2811 12.9586 13.7138 13.0835 11.4991 13.0835ZM0 13.0835V9.74448C0.908575 9.74448 1.59568 9.61388 2.06133 9.35266C2.54969 9.08009 2.85065 8.75641 2.96423 8.38162C3.08915 8.00684 3.1573 7.28565 3.16865 6.21808L0 6.21808V2.09808e-05H8.48382V5.29815C8.48382 7.21751 8.41567 8.52359 8.27939 9.21638C8.1431 9.92052 7.7456 10.619 7.08688 11.3118C6.42817 11.9818 5.62748 12.4475 4.68484 12.7087C3.76491 12.9586 2.20329 13.0835 0 13.0835Z" fill="#7E9870"/>
</svg>
