<svg width="37" height="24" viewBox="0 0 37 24" fill="none" xmlns="http://www.w3.org/2000/svg">
<path d="M21.0938 24V17.875C22.7812 17.875 24.0521 17.6354 24.9062 17.1562C25.7812 16.6354 26.3229 16.0417 26.5312 15.375C26.7604 14.7083 26.8958 13.3854 26.9375 11.4062H21.0938L21.0938 0L36.6875 0V9.71875C36.6875 13.2396 36.5625 15.6354 36.3125 16.9062C36.0625 18.1979 35.3333 19.4792 34.125 20.75C32.9167 21.9792 31.4479 22.8333 29.7188 23.3125C28.0312 23.7708 25.1562 24 21.0938 24ZM0 24V17.875C1.66667 17.875 2.92708 17.6354 3.78125 17.1562C4.67708 16.6562 5.22917 16.0625 5.4375 15.375C5.66667 14.6875 5.79167 13.3646 5.8125 11.4062L0 11.4062V0H15.5625L15.5625 9.71875C15.5625 13.2396 15.4375 15.6354 15.1875 16.9062C14.9375 18.1979 14.2083 19.4792 13 20.75C11.7917 21.9792 10.3229 22.8333 8.59375 23.3125C6.90625 23.7708 4.04167 24 0 24Z" fill="#288600"/>
</svg>
