<svg width="24" height="25" viewBox="0 0 24 25" fill="none" xmlns="http://www.w3.org/2000/svg">
<g opacity="0.68">
<path d="M4.5 3.28516V19.7852H13.5V3.28516H4.5ZM3.75 1.78516H14.25C14.4489 1.78516 14.6397 1.86417 14.7803 2.00483C14.921 2.14548 15 2.33624 15 2.53516V20.5352C15 20.7341 14.921 20.9248 14.7803 21.0655C14.6397 21.2061 14.4489 21.2852 14.25 21.2852H3.75C3.55109 21.2852 3.36032 21.2061 3.21967 21.0655C3.07902 20.9248 3 20.7341 3 20.5352V2.53516C3 2.33624 3.07902 2.14548 3.21967 2.00483C3.36032 1.86417 3.55109 1.78516 3.75 1.78516Z" fill="white"/>
<path d="M6 6.28516H12V7.78516H6V6.28516ZM6 10.7852H12V12.2852H6V10.7852ZM6 15.2852H12V16.7852H6V15.2852ZM15 12.2852H18V13.7852H15V12.2852ZM15 15.2852H18V16.7852H15V15.2852ZM1.5 19.7852H22.5V21.2852H1.5V19.7852Z" fill="white"/>
<path d="M15 9.28516V19.7852H19.5V9.28516H15ZM14.25 7.78516H20.25C20.4489 7.78516 20.6397 7.86417 20.7803 8.00483C20.921 8.14548 21 8.33624 21 8.53516V20.5352C21 20.7341 20.921 20.9248 20.7803 21.0655C20.6397 21.2061 20.4489 21.2852 20.25 21.2852H14.25C14.0511 21.2852 13.8603 21.2061 13.7197 21.0655C13.579 20.9248 13.5 20.7341 13.5 20.5352V8.53516C13.5 8.33624 13.579 8.14548 13.7197 8.00483C13.8603 7.86417 14.0511 7.78516 14.25 7.78516Z" fill="white"/>
</g>
</svg>
