<svg width="146" height="103" viewBox="0 0 146 103" fill="none" xmlns="http://www.w3.org/2000/svg">
<g clip-path="url(#clip0_106_12008)">
<path d="M142.776 16.0115C141.938 12.9168 140.305 10.0954 138.038 7.82827C135.771 5.56119 132.949 3.92752 129.855 3.08995C118.525 0 72.926 0 72.926 0C72.926 0 27.3249 0.093531 15.9951 3.18348C12.9003 4.0211 10.0789 5.65485 7.81193 7.92204C5.54494 10.1892 3.91144 13.0108 3.07409 16.1056C-0.352914 36.2365 -1.68231 66.9113 3.1682 86.237C4.00563 89.3317 5.63917 92.1531 7.90615 94.4202C10.1731 96.6873 12.9945 98.321 16.0892 99.1585C27.419 102.248 73.0189 102.248 73.0189 102.248C73.0189 102.248 118.618 102.248 129.948 99.1585C133.042 98.321 135.864 96.6874 138.131 94.4203C140.398 92.1532 142.032 89.3318 142.869 86.237C146.484 66.0776 147.598 35.4215 142.776 16.0115Z" fill="#FF0000"/>
<path d="M58.4121 73.0341L96.2398 51.1239L58.4121 29.2136V73.0341Z" fill="white"/>
</g>
<defs>
<clipPath id="clip0_106_12008">
<rect width="146" height="102.656" fill="white"/>
</clipPath>
</defs>
</svg>
