<svg width="24" height="25" viewBox="0 0 24 25" fill="none" xmlns="http://www.w3.org/2000/svg">
<g opacity="0.5">
<path d="M19 4.28516H5C4.20435 4.28516 3.44129 4.60123 2.87868 5.16384C2.31607 5.72645 2 6.48951 2 7.28516V17.2852C2 18.0808 2.31607 18.8439 2.87868 19.4065C3.44129 19.9691 4.20435 20.2852 5 20.2852H19C19.7956 20.2852 20.5587 19.9691 21.1213 19.4065C21.6839 18.8439 22 18.0808 22 17.2852V7.28516C22 6.48951 21.6839 5.72645 21.1213 5.16384C20.5587 4.60123 19.7956 4.28516 19 4.28516ZM18.33 6.28516L12 11.0352L5.67 6.28516H18.33ZM19 18.2852H5C4.73478 18.2852 4.48043 18.1798 4.29289 17.9923C4.10536 17.8047 4 17.5504 4 17.2852V7.53516L11.4 13.0852C11.5731 13.215 11.7836 13.2852 12 13.2852C12.2164 13.2852 12.4269 13.215 12.6 13.0852L20 7.53516V17.2852C20 17.5504 19.8946 17.8047 19.7071 17.9923C19.5196 18.1798 19.2652 18.2852 19 18.2852Z" fill="white"/>
</g>
</svg>
