<svg width="56" height="40" viewBox="0 0 56 40" fill="none" xmlns="http://www.w3.org/2000/svg">
<g clip-path="url(#clip0_106_11826)">
<path d="M54.7632 6.14141C54.442 4.95437 53.8155 3.87219 52.9459 3.00262C52.0764 2.13306 50.9943 1.50645 49.8072 1.18519C45.4615 0 27.9716 0 27.9716 0C27.9716 0 10.4808 0.0358749 6.1351 1.22106C4.94806 1.54234 3.86589 2.16898 2.99636 3.03859C2.12683 3.9082 1.50028 4.99043 1.1791 6.1775C-0.135364 13.8989 -0.645271 25.6646 1.2152 33.0772C1.5364 34.2642 2.16297 35.3464 3.0325 36.216C3.90202 37.0855 4.98418 37.7121 6.1712 38.0334C10.5169 39.2186 28.0073 39.2186 28.0073 39.2186C28.0073 39.2186 45.4974 39.2186 49.8429 38.0334C51.0299 37.7122 52.1121 37.0856 52.9817 36.216C53.8513 35.3464 54.4779 34.2642 54.7991 33.0772C56.1855 25.3448 56.6128 13.5863 54.7632 6.14141Z" fill="#FF0000"/>
<path d="M22.4043 28.0131L36.9135 19.6092L22.4043 11.2053V28.0131Z" fill="white"/>
</g>
<defs>
<clipPath id="clip0_106_11826">
<rect width="56" height="39.375" fill="white"/>
</clipPath>
</defs>
</svg>
