<svg width="24" height="25" viewBox="0 0 24 25" fill="none" xmlns="http://www.w3.org/2000/svg">
<g opacity="0.5">
<path fill-rule="evenodd" clip-rule="evenodd" d="M17 23.2852C17.5304 23.2852 18.0391 23.0744 18.4142 22.6994C18.7893 22.3243 19 21.8156 19 21.2852V3.28516C19 2.75472 18.7893 2.24602 18.4142 1.87094C18.0391 1.49587 17.5304 1.28516 17 1.28516H7C6.46957 1.28516 5.96086 1.49587 5.58579 1.87094C5.21071 2.24602 5 2.75472 5 3.28516V21.2852C5 21.8156 5.21071 22.3243 5.58579 22.6994C5.96086 23.0744 6.46957 23.2852 7 23.2852H17ZM11 21.2852H7V3.28516H17V21.2852H13V20.2542C13 19.9889 12.8946 19.7346 12.7071 19.547C12.5196 19.3595 12.2652 19.2542 12 19.2542C11.7348 19.2542 11.4804 19.3595 11.2929 19.547C11.1054 19.7346 11 19.9889 11 20.2542V21.2852Z" fill="white"/>
</g>
</svg>
