<svg width="20" height="20" viewBox="0 0 20 20" fill="none" xmlns="http://www.w3.org/2000/svg">
<path d="M20 9.99999C20 4.47715 15.5228 0 9.99999 0C4.47715 0 0 4.47715 0 9.99999C0 15.5228 4.47715 20 9.99999 20C15.5228 20 20 15.5228 20 9.99999Z" fill="#68BF44"/>
<path d="M8.32012 15.7531C8.23079 15.7531 8.14571 15.7191 8.0819 15.6468C7.96279 15.5149 7.97555 15.315 8.10742 15.1959L13.4545 10.3763L8.10742 5.55663C7.97555 5.43752 7.96705 5.23759 8.0819 5.10572C8.20101 4.97385 8.40094 4.96535 8.53281 5.0802L14.1437 10.138C14.2117 10.1976 14.25 10.2827 14.25 10.3763C14.25 10.4698 14.2117 10.5549 14.1437 10.6145L8.53281 15.6681C8.47326 15.7234 8.39669 15.7489 8.32012 15.7489V15.7531Z" fill="white"/>
<path d="M8.32002 15.7531C8.14561 15.7531 8.00098 15.6084 8.00098 15.434V7.35169C8.00098 7.17729 8.14561 7.03265 8.32002 7.03265C8.49442 7.03265 8.63906 7.17729 8.63906 7.35169V15.434C8.63906 15.6084 8.49442 15.7531 8.32002 15.7531Z" fill="white"/>
</svg>
