<svg width="16" height="28" viewBox="0 0 16 28" fill="none" xmlns="http://www.w3.org/2000/svg">
<path d="M15.2894 0.713785C15.5147 0.938576 15.6934 1.20558 15.8153 1.49953C15.9372 1.79347 16 2.10857 16 2.4268C16 2.74503 15.9372 3.06013 15.8153 3.35407C15.6934 3.64801 15.5147 3.91502 15.2894 4.13981L5.86177 13.5675L15.2894 22.9951C15.7437 23.4494 15.999 24.0656 15.999 24.7081C15.999 25.3506 15.7437 25.9668 15.2894 26.4211C14.8351 26.8755 14.2189 27.1307 13.5764 27.1307C12.9339 27.1307 12.3177 26.8755 11.8634 26.4211L0.71058 15.2683C0.485328 15.0435 0.306622 14.7765 0.18469 14.4826C0.0627594 14.1886 0 13.8735 0 13.5553C0 13.2371 0.0627594 12.922 0.18469 12.628C0.306622 12.3341 0.485328 12.0671 0.71058 11.8423L11.8634 0.689487C12.7867 -0.23384 14.3418 -0.233839 15.2894 0.713785Z" fill="#68BF44"/>
</svg>
