<svg width="16" height="28" viewBox="0 0 16 28" fill="none" xmlns="http://www.w3.org/2000/svg">
<path d="M0.710583 0.713785C0.485331 0.938576 0.306625 1.20558 0.184694 1.49953C0.0627624 1.79347 0 2.10857 0 2.4268C0 2.74503 0.0627624 3.06013 0.184694 3.35407C0.306625 3.64801 0.485331 3.91502 0.710583 4.13981L10.1382 13.5675L0.710583 22.9951C0.256263 23.4494 0.00102886 24.0656 0.00102886 24.7081C0.00102886 25.3506 0.256263 25.9668 0.710583 26.4211C1.1649 26.8755 1.78109 27.1307 2.4236 27.1307C3.0661 27.1307 3.68229 26.8755 4.13661 26.4211L15.2894 15.2683C15.5147 15.0435 15.6934 14.7765 15.8153 14.4826C15.9372 14.1886 16 13.8735 16 13.5553C16 13.2371 15.9372 12.922 15.8153 12.628C15.6934 12.3341 15.5147 12.0671 15.2894 11.8423L4.13661 0.689487C3.21328 -0.23384 1.65821 -0.233839 0.710583 0.713785Z" fill="#68BF44"/>
</svg>
