<svg width="12" height="10" viewBox="0 0 12 10" fill="none" xmlns="http://www.w3.org/2000/svg">
<path d="M5.63573 6.45371C5.63573 8.13253 4.44081 9.21176 2.81786 9.21176C1.19492 9.21176 0 8.13253 0 6.45371C0 5.7642 0.083228 5.24857 0.83228 3.63571L2.32444 0.427979H5.3147L4.24463 4.0674C5.10069 4.47511 5.63573 5.31452 5.63573 6.45371ZM11.8243 6.45371C11.8243 8.13253 10.6294 9.21176 9.00646 9.21176C7.38351 9.21176 6.1886 8.13253 6.1886 6.45371C6.1886 5.7642 6.27183 5.24857 7.02088 3.63571L8.51898 0.427979H11.5092L10.4392 4.0674C11.2893 4.47511 11.8243 5.31452 11.8243 6.45371Z" fill="#004E71"/>
</svg>
