<svg width="13" height="13" viewBox="0 0 13 13" fill="none" xmlns="http://www.w3.org/2000/svg">
<path d="M11.4016 0.434814H2.287C1.5396 0.434814 0.932129 1.04229 0.932129 1.78968V10.9043C0.932129 11.6517 1.5396 12.2591 2.287 12.2591H11.4016C12.149 12.2591 12.7565 11.6517 12.7565 10.9043V1.78968C12.7565 1.04229 12.149 0.434814 11.4016 0.434814Z" fill="white"/>
<path d="M5.24257 9.79524C5.14551 9.79524 5.04846 9.75731 4.97603 9.68193C4.83463 9.53511 4.83956 9.30108 4.98638 9.15919L7.91191 6.34648L4.98638 3.53377C4.83956 3.39237 4.83463 3.15785 4.97603 3.01104C5.11743 2.86323 5.35096 2.8588 5.49877 3.00069L8.70119 6.07994C8.77361 6.1499 8.8145 6.24597 8.8145 6.34648C8.8145 6.44699 8.77361 6.54306 8.70119 6.61302L5.49877 9.69227C5.42683 9.76125 5.3352 9.79524 5.24257 9.79524Z" fill="#288600"/>
<path d="M11.4016 12.2591H2.287C1.5396 12.2591 0.932129 11.6517 0.932129 10.9043V1.78968C0.932129 1.04229 1.5396 0.434814 2.287 0.434814H11.4016C12.149 0.434814 12.7565 1.04229 12.7565 1.78968V10.9043C12.7565 11.6517 12.149 12.2591 11.4016 12.2591ZM2.287 1.17383C1.94754 1.17383 1.67115 1.45023 1.67115 1.78968V10.9043C1.67115 11.2437 1.94754 11.5201 2.287 11.5201H11.4016C11.741 11.5201 12.0174 11.2437 12.0174 10.9043V1.78968C12.0174 1.45023 11.741 1.17383 11.4016 1.17383H2.287Z" fill="#288600"/>
</svg>
