<svg width="12" height="13" viewBox="0 0 12 13" fill="none" xmlns="http://www.w3.org/2000/svg">
<path d="M1.35476 12.2591L10.4693 12.2591C11.2167 12.2591 11.8242 11.6517 11.8242 10.9043L11.8242 1.78967C11.8242 1.04228 11.2167 0.434801 10.4693 0.434801L1.35477 0.4348C0.60737 0.4348 -0.000103926 1.04227 -0.000103991 1.78967L-0.000104786 10.9043C-0.000104851 11.6516 0.607369 12.2591 1.35476 12.2591Z" fill="white"/>
<path d="M7.5128 2.89867C7.60986 2.89867 7.70692 2.9366 7.77934 3.01198C7.92074 3.1588 7.91581 3.39283 7.76899 3.53472L4.84346 6.34743L7.76899 9.16014C7.91581 9.30154 7.92074 9.53605 7.77934 9.68287C7.63794 9.83068 7.40441 9.83511 7.25661 9.69322L4.05419 6.61397C3.98176 6.54401 3.94087 6.44793 3.94087 6.34743C3.94087 6.24692 3.98176 6.15085 4.05419 6.08089L7.25661 3.00164C7.32854 2.93266 7.42018 2.89867 7.5128 2.89867Z" fill="#288600"/>
<path d="M1.35477 0.4348L10.4693 0.434801C11.2167 0.434801 11.8242 1.04228 11.8242 1.78967L11.8242 10.9043C11.8242 11.6517 11.2167 12.2591 10.4693 12.2591L1.35476 12.2591C0.607369 12.2591 -0.000104851 11.6516 -0.000104786 10.9043L-0.000103991 1.78967C-0.000103926 1.04227 0.60737 0.4348 1.35477 0.4348ZM10.4693 11.5201C10.8088 11.5201 11.0852 11.2437 11.0852 10.9043L11.0852 1.78967C11.0852 1.45021 10.8088 1.17382 10.4693 1.17382L1.35477 1.17382C1.01531 1.17382 0.738916 1.45021 0.738916 1.78967L0.738916 10.9043C0.738916 11.2437 1.01531 11.5201 1.35477 11.5201L10.4693 11.5201Z" fill="#288600"/>
</svg>
