<svg width="32" height="32" viewBox="0 0 32 32" fill="none" xmlns="http://www.w3.org/2000/svg">
<path d="M16.687 27.7192C16.687 27.7192 16.6326 27.7192 16.6054 27.7192C16.3334 27.692 16.1067 27.5016 16.0342 27.2387L12.7791 16.3673L2.99583 10.4556C2.75102 10.3106 2.62408 10.0204 2.67848 9.73933C2.73288 9.45826 2.95955 9.24065 3.24063 9.19531L28.5467 5.34183C28.8005 5.30557 29.0635 5.41437 29.2085 5.63198C29.3536 5.84959 29.3718 6.13066 29.2358 6.35734L17.2673 27.3837C17.1494 27.6013 16.9228 27.7283 16.6779 27.7283L16.687 27.7192ZM5.30792 10.2562L13.713 15.3337C13.8581 15.4243 13.9669 15.5604 14.0122 15.7236L16.8865 25.3255L27.377 6.90136L5.30792 10.2562Z" fill="white"/>
<path d="M11.3735 24.4279C11.2556 24.4279 11.1377 24.4007 11.0289 24.3372C10.766 24.183 10.6391 23.8748 10.7116 23.5846L12.6973 15.7507C12.7426 15.5875 12.8423 15.4424 12.9874 15.3427L28.2835 5.44154C28.6008 5.24207 29.0179 5.32367 29.2264 5.64102C29.4259 5.95836 29.3352 6.37544 29.0269 6.58398L13.9485 16.3401L12.5975 21.6806L12.9421 21.3541C13.2141 21.1003 13.6493 21.1093 13.9032 21.3904C14.1571 21.6624 14.148 22.0976 13.8669 22.3515L11.8268 24.2465C11.6999 24.3644 11.5276 24.4279 11.3644 24.4279H11.3735Z" fill="white"/>
</svg>
