<svg width="64" height="64" viewBox="0 0 64 64" fill="none" xmlns="http://www.w3.org/2000/svg">
<g opacity="0.68">
<path d="M50.6673 10.6665H13.334C11.2123 10.6665 9.17742 11.5094 7.67713 13.0096C6.17684 14.5099 5.33398 16.5448 5.33398 18.6665V45.3332C5.33398 47.4549 6.17684 49.4897 7.67713 50.99C9.17742 52.4903 11.2123 53.3332 13.334 53.3332H50.6673C52.789 53.3332 54.8239 52.4903 56.3242 50.99C57.8245 49.4897 58.6673 47.4549 58.6673 45.3332V18.6665C58.6673 16.5448 57.8245 14.5099 56.3242 13.0096C54.8239 11.5094 52.789 10.6665 50.6673 10.6665ZM48.8806 15.9998L32.0006 28.6665L15.1207 15.9998H48.8806ZM50.6673 47.9998H13.334C12.6267 47.9998 11.9485 47.7189 11.4484 47.2188C10.9483 46.7187 10.6673 46.0404 10.6673 45.3332V19.3332L30.4006 34.1332C30.8622 34.4794 31.4237 34.6665 32.0006 34.6665C32.5776 34.6665 33.1391 34.4794 33.6007 34.1332L53.334 19.3332V45.3332C53.334 46.0404 53.053 46.7187 52.5529 47.2188C52.0528 47.7189 51.3746 47.9998 50.6673 47.9998Z" fill="#68BF44"/>
</g>
</svg>
