<svg width="327" height="344" viewBox="0 0 327 344" fill="none" xmlns="http://www.w3.org/2000/svg">
<g clip-path="url(#clip0_186_334)">
<path d="M165.249 312.31C87.1091 312.31 23.5391 248.74 23.5391 170.6C23.5391 92.4599 87.1091 28.8899 165.249 28.8899C243.389 28.8899 306.959 92.4599 306.959 170.6C306.959 248.74 243.389 312.31 165.249 312.31ZM165.249 29.9899C87.7091 29.9899 24.6291 93.0699 24.6291 170.6C24.6291 248.13 87.7091 311.21 165.239 311.21C242.769 311.21 305.849 248.13 305.849 170.6C305.849 93.0699 242.779 29.9899 165.249 29.9899Z" fill="url(#paint0_linear_186_334)"/>
<path d="M0.5 143.64C0.22 143.64 0 143.42 0 143.14C0 105.56 15.46 70.0599 43.53 43.1799C71.32 16.5599 107.61 1.8999 145.72 1.8999C146 1.8999 146.22 2.1199 146.22 2.3999C146.22 2.6799 146 2.8999 145.72 2.8999C67.27 2.8999 1 67.1199 1 143.14C1 143.42 0.78 143.64 0.5 143.64Z" fill="url(#paint1_linear_186_334)"/>
<path d="M146.551 5C147.931 5 149.051 3.88071 149.051 2.5C149.051 1.11929 147.931 0 146.551 0C145.17 0 144.051 1.11929 144.051 2.5C144.051 3.88071 145.17 5 146.551 5Z" fill="#AFD6E2"/>
<path d="M180.359 342.62C180.079 342.62 179.859 342.4 179.859 342.12C179.859 341.84 180.079 341.62 180.359 341.62C258.809 341.62 325.079 277.4 325.079 201.38C325.079 201.1 325.299 200.88 325.579 200.88C325.859 200.88 326.079 201.1 326.079 201.38C326.079 238.96 310.619 274.46 282.549 301.35C254.759 327.97 218.469 342.62 180.359 342.62Z" fill="url(#paint2_linear_186_334)"/>
<path d="M181.43 342.03C181.43 342.93 180.7 343.66 179.8 343.66C178.9 343.66 178.17 342.93 178.17 342.03C178.17 341.13 178.9 340.4 179.8 340.4C180.7 340.4 181.43 341.13 181.43 342.03Z" fill="#AFD6E2"/>
<path d="M207.34 223.71C211.338 223.71 214.58 220.469 214.58 216.47C214.58 212.471 211.338 209.23 207.34 209.23C203.341 209.23 200.1 212.471 200.1 216.47C200.1 220.469 203.341 223.71 207.34 223.71Z" fill="url(#paint3_linear_186_334)"/>
<path d="M24.0896 153.82C28.0882 153.82 31.3296 150.579 31.3296 146.58C31.3296 142.582 28.0882 139.34 24.0896 139.34C20.0911 139.34 16.8496 142.582 16.8496 146.58C16.8496 150.579 20.0911 153.82 24.0896 153.82Z" fill="url(#paint4_linear_186_334)"/>
<path d="M24.9091 200.97C33.9059 200.97 41.1991 193.677 41.1991 184.68C41.1991 175.683 33.9059 168.39 24.9091 168.39C15.9124 168.39 8.61914 175.683 8.61914 184.68C8.61914 193.677 15.9124 200.97 24.9091 200.97Z" fill="white"/>
<path d="M24.9091 201.46C15.6491 201.46 8.11914 193.93 8.11914 184.67C8.11914 175.41 15.6491 167.88 24.9091 167.88C34.1691 167.88 41.6991 175.41 41.6991 184.67C41.6991 193.93 34.1691 201.46 24.9091 201.46ZM24.9091 168.89C16.2091 168.89 9.11914 175.97 9.11914 184.68C9.11914 193.39 16.1991 200.47 24.9091 200.47C33.6191 200.47 40.6991 193.39 40.6991 184.68C40.6991 175.97 33.6191 168.89 24.9091 168.89Z" fill="url(#paint5_linear_186_334)"/>
<path d="M24.7689 172.75C18.3389 172.75 13.1289 177.96 13.1289 184.39C13.1289 190.82 18.3389 196.03 24.7689 196.03C31.1989 196.03 36.4089 190.82 36.4089 184.39C36.4089 177.96 31.1989 172.75 24.7689 172.75ZM24.7689 190.54C21.3789 190.54 18.6289 187.79 18.6289 184.4C18.6289 181.01 21.3789 178.26 24.7689 178.26C28.1589 178.26 30.9089 181.01 30.9089 184.4C30.9089 187.79 28.1589 190.54 24.7689 190.54Z" fill="url(#paint6_linear_186_334)"/>
<path d="M262.321 251.46H221.181C219.401 251.46 217.971 250.02 217.971 248.25C217.971 246.47 219.411 245.04 221.181 245.04H262.321C264.101 245.04 265.531 246.48 265.531 248.25C265.531 250.03 264.091 251.46 262.321 251.46Z" fill="url(#paint7_linear_186_334)"/>
<path d="M262.321 261.96H221.181C219.401 261.96 217.971 260.52 217.971 258.75C217.971 256.97 219.411 255.54 221.181 255.54H262.321C264.101 255.54 265.531 256.98 265.531 258.75C265.531 260.53 264.091 261.96 262.321 261.96Z" fill="url(#paint8_linear_186_334)"/>
<path d="M306.16 172.92C309.192 172.92 311.65 170.462 311.65 167.43C311.65 164.398 309.192 161.94 306.16 161.94C303.128 161.94 300.67 164.398 300.67 167.43C300.67 170.462 303.128 172.92 306.16 172.92Z" fill="url(#paint9_linear_186_334)"/>
<path d="M209.611 91.1702H236.331C238.861 91.1702 241.181 92.6102 242.311 94.8802L244.351 98.9802C245.481 101.25 247.791 102.69 250.331 102.69H298.481" stroke="#AFD6E2" stroke-miterlimit="10"/>
<path d="M209.611 91.1701C209.611 93.7101 207.551 95.7801 205.001 95.7801C202.451 95.7801 200.391 93.7201 200.391 91.1701C200.391 88.6201 202.451 86.5601 205.001 86.5601C207.551 86.5601 209.611 88.6201 209.611 91.1701Z" stroke="#AFD6E2" stroke-miterlimit="10"/>
<path d="M307.691 102.69C307.691 105.23 305.631 107.3 303.081 107.3C300.531 107.3 298.471 105.24 298.471 102.69C298.471 100.14 300.531 98.0801 303.081 98.0801C305.631 98.0801 307.691 100.14 307.691 102.69Z" stroke="#AFD6E2" stroke-miterlimit="10"/>
<path d="M305.221 102.69C305.221 103.87 304.261 104.83 303.081 104.83C301.901 104.83 300.941 103.87 300.941 102.69C300.941 101.51 301.901 100.55 303.081 100.55C304.261 100.55 305.221 101.51 305.221 102.69Z" fill="#AFD6E2"/>
<path d="M57.0305 299.37C57.0305 301.91 54.9705 303.98 52.4205 303.98C49.8705 303.98 47.8105 301.92 47.8105 299.37C47.8105 296.82 49.8705 294.76 52.4205 294.76C54.9705 294.76 57.0305 296.82 57.0305 299.37Z" stroke="#AFD6E2" stroke-miterlimit="10"/>
<path d="M49.3802 329.51C49.3802 332.05 47.3202 334.12 44.7702 334.12C42.2202 334.12 40.1602 332.06 40.1602 329.51C40.1602 326.96 42.2202 324.9 44.7702 324.9C47.3202 324.9 49.3802 326.96 49.3802 329.51Z" stroke="#AFD6E2" stroke-miterlimit="10"/>
<path d="M47.3309 329.51C47.3309 330.92 46.1809 332.07 44.7709 332.07C43.3609 332.07 42.2109 330.92 42.2109 329.51C42.2109 328.1 43.3609 326.95 44.7709 326.95C46.1809 326.95 47.3309 328.1 47.3309 329.51Z" fill="#AFD6E2"/>
<path d="M156.111 321.23C156.111 323.77 154.051 325.84 151.501 325.84C148.951 325.84 146.891 323.78 146.891 321.23C146.891 318.68 148.951 316.62 151.501 316.62C154.051 316.62 156.111 318.68 156.111 321.23Z" stroke="#AFD6E2" stroke-miterlimit="10"/>
<path d="M154.059 321.23C154.059 322.64 152.909 323.79 151.499 323.79C150.089 323.79 148.939 322.64 148.939 321.23C148.939 319.82 150.089 318.67 151.499 318.67C152.909 318.67 154.059 319.82 154.059 321.23Z" fill="#AFD6E2"/>
<path d="M70.4492 311.24H101.879C104.249 311.24 106.389 312.68 107.289 314.87L108.899 318.82C109.489 320.27 110.899 321.22 112.469 321.22H147.419" stroke="#AFD6E2" stroke-miterlimit="10"/>
<path d="M100.31 319.8H78.2796C76.7996 319.8 75.5996 318.6 75.5996 317.12C75.5996 315.64 76.7996 314.44 78.2796 314.44H100.31C101.79 314.44 102.99 315.64 102.99 317.12C102.99 318.6 101.79 319.8 100.31 319.8Z" fill="url(#paint10_linear_186_334)"/>
<path d="M56.4504 299.37H67.6604C69.2004 299.37 70.4504 300.62 70.4504 302.16V321.02C70.4504 322.56 69.2004 323.81 67.6604 323.81H58.2304C56.6904 323.81 55.4404 325.06 55.4404 326.6V326.74C55.4404 328.28 54.1904 329.53 52.6504 329.53H49.1504" stroke="#AFD6E2" stroke-miterlimit="10"/>
<path d="M21.6201 273.05H15.8301V243.8C15.8301 242.2 17.1301 240.91 18.7201 240.91C20.3201 240.91 21.6101 242.21 21.6101 243.8V273.05H21.6201Z" fill="url(#paint11_linear_186_334)"/>
<path d="M31.2802 273.05H25.4902V256.52C25.4902 254.92 26.7902 253.63 28.3802 253.63C29.9802 253.63 31.2702 254.93 31.2702 256.52V273.05H31.2802Z" fill="url(#paint12_linear_186_334)"/>
<path d="M41.831 273.05H36.041V266.23C36.041 264.63 37.341 263.34 38.931 263.34C40.531 263.34 41.821 264.64 41.821 266.23V273.05H41.831Z" fill="url(#paint13_linear_186_334)"/>
<path d="M41.8298 275.3H15.8398V276.59H41.8298V275.3Z" fill="url(#paint14_linear_186_334)"/>
<path d="M230.09 70.9301C216.21 70.9301 204.91 59.6401 204.91 45.7501C204.91 31.8601 216.2 20.5701 230.09 20.5701C243.98 20.5701 255.27 31.8601 255.27 45.7501C255.27 59.6401 243.98 70.9301 230.09 70.9301Z" fill="white"/>
<path d="M230.09 71.4301C215.93 71.4301 204.41 59.9101 204.41 45.7501C204.41 31.5901 215.93 20.0701 230.09 20.0701C244.25 20.0701 255.77 31.5901 255.77 45.7501C255.77 59.9101 244.25 71.4301 230.09 71.4301ZM230.09 21.0701C216.48 21.0701 205.41 32.1401 205.41 45.7501C205.41 59.3601 216.48 70.4301 230.09 70.4301C243.7 70.4301 254.77 59.3601 254.77 45.7501C254.77 32.1401 243.7 21.0701 230.09 21.0701Z" fill="url(#paint15_linear_186_334)"/>
<path d="M250.384 50.6894C253.111 39.2519 246.049 27.7693 234.612 25.0424C223.174 22.3155 211.692 29.3768 208.965 40.8144C206.238 52.2519 213.299 63.7345 224.737 66.4615C236.174 69.1884 247.657 62.127 250.384 50.6894Z" fill="url(#paint16_linear_186_334)"/>
<path d="M235.599 37.1202C235.599 40.4002 232.939 43.0702 229.649 43.0702C226.359 43.0702 223.699 40.4102 223.699 37.1202C223.699 33.8302 226.359 31.1702 229.649 31.1702C232.939 31.1702 235.599 33.8302 235.599 37.1202Z" fill="white"/>
<path d="M239.619 59.54H220.549V54.29C220.549 49.02 224.819 44.75 230.089 44.75C235.359 44.75 239.629 49.02 239.629 54.29V59.54H239.619Z" fill="white"/>
<path d="M207.9 294.18V292.39C207.9 290.56 206.5 289.07 204.76 289.07H183.62C181.89 289.07 180.48 290.56 180.48 292.39V294.18H180.42C177.57 294.18 175.26 296.62 175.26 299.63V303.34C175.26 312.03 179.6 320.08 186.68 324.51L187.9 325.27C191.75 327.68 196.63 327.68 200.48 325.27L201.7 324.51C208.78 320.08 213.12 312.04 213.12 303.34V299.63C213.12 296.62 210.81 294.18 207.96 294.18H207.9Z" fill="url(#paint17_linear_186_334)"/>
<path d="M192.529 315.7C192.289 315.7 192.039 315.64 191.809 315.52L185.27 311.96C184.54 311.56 184.269 310.65 184.669 309.92C185.069 309.19 185.98 308.92 186.71 309.32L192.08 312.24L201.169 299.48C201.649 298.81 202.589 298.65 203.259 299.13C203.929 299.61 204.089 300.55 203.609 301.22L193.749 315.07C193.459 315.48 192.999 315.7 192.529 315.7Z" fill="white"/>
<path d="M164.181 23.46H124.751C122.381 23.46 120.461 25.38 120.461 27.75V35.04C120.461 37.41 122.381 39.33 124.751 39.33H155.341L160.841 45.32C162.081 46.67 164.331 45.79 164.331 43.96V39.32C166.631 39.24 168.471 37.37 168.471 35.05V27.76C168.471 25.39 166.551 23.47 164.181 23.47V23.46Z" fill="url(#paint18_linear_186_334)"/>
<path d="M131.111 31.1099C131.111 32.0299 130.361 32.7799 129.441 32.7799C128.521 32.7799 127.771 32.0299 127.771 31.1099C127.771 30.1899 128.521 29.4399 129.441 29.4399C130.361 29.4399 131.111 30.1899 131.111 31.1099Z" fill="white"/>
<path d="M139.25 31.1099C139.25 32.0299 138.5 32.7799 137.58 32.7799C136.66 32.7799 135.91 32.0299 135.91 31.1099C135.91 30.1899 136.66 29.4399 137.58 29.4399C138.5 29.4399 139.25 30.1899 139.25 31.1099Z" fill="white"/>
<path d="M147.401 31.1099C147.401 32.0299 146.651 32.7799 145.731 32.7799C144.811 32.7799 144.061 32.0299 144.061 31.1099C144.061 30.1899 144.811 29.4399 145.731 29.4399C146.651 29.4399 147.401 30.1899 147.401 31.1099Z" fill="white"/>
<path d="M155.541 31.1099C155.541 32.0299 154.791 32.7799 153.871 32.7799C152.951 32.7799 152.201 32.0299 152.201 31.1099C152.201 30.1899 152.951 29.4399 153.871 29.4399C154.791 29.4399 155.541 30.1899 155.541 31.1099Z" fill="white"/>
<path d="M111.69 44.75H151.12C153.49 44.75 155.41 46.67 155.41 49.04V56.33C155.41 58.7 153.49 60.62 151.12 60.62H120.53L115.03 66.61C113.79 67.96 111.54 67.08 111.54 65.25V60.61C109.24 60.53 107.4 58.66 107.4 56.34V49.05C107.4 46.68 109.32 44.76 111.69 44.76V44.75Z" fill="url(#paint19_linear_186_334)"/>
<path d="M121.291 52.14C121.291 53.06 120.541 53.81 119.621 53.81C118.701 53.81 117.951 53.06 117.951 52.14C117.951 51.22 118.701 50.47 119.621 50.47C120.541 50.47 121.291 51.22 121.291 52.14Z" fill="white"/>
<path d="M129.44 52.14C129.44 53.06 128.69 53.81 127.77 53.81C126.85 53.81 126.1 53.06 126.1 52.14C126.1 51.22 126.85 50.47 127.77 50.47C128.69 50.47 129.44 51.22 129.44 52.14Z" fill="white"/>
<path d="M137.58 52.14C137.58 53.06 136.83 53.81 135.91 53.81C134.99 53.81 134.24 53.06 134.24 52.14C134.24 51.22 134.99 50.47 135.91 50.47C136.83 50.47 137.58 51.22 137.58 52.14Z" fill="white"/>
<path d="M145.721 52.14C145.721 53.06 144.971 53.81 144.051 53.81C143.131 53.81 142.381 53.06 142.381 52.14C142.381 51.22 143.131 50.47 144.051 50.47C144.971 50.47 145.721 51.22 145.721 52.14Z" fill="white"/>
<path d="M277.869 189.7H248.439C245.219 189.7 242.609 187.08 242.609 183.86V151.86C242.609 148.64 245.229 146.03 248.439 146.03H277.869C281.089 146.03 283.699 148.65 283.699 151.86V183.86C283.699 187.08 281.079 189.7 277.869 189.7ZM248.439 147.13C245.829 147.13 243.699 149.25 243.699 151.87V183.87C243.699 186.48 245.819 188.61 248.439 188.61H277.869C280.479 188.61 282.609 186.49 282.609 183.87V151.87C282.609 149.26 280.489 147.13 277.869 147.13H248.439Z" fill="url(#paint20_linear_186_334)"/>
<path d="M274.329 143.14H244.909C241.988 143.14 239.619 145.508 239.619 148.43V180.42C239.619 183.341 241.988 185.71 244.909 185.71H274.329C277.251 185.71 279.619 183.341 279.619 180.42V148.43C279.619 145.508 277.251 143.14 274.329 143.14Z" fill="url(#paint21_linear_186_334)"/>
<path d="M258.489 153.83L256.919 150.81C256.419 149.85 255.189 149.49 254.279 150.08C251.939 151.59 250.449 153.26 249.519 154.82C247.949 157.44 247.979 160.71 249.389 163.42L251.679 167.84L253.059 170.49L255.349 174.91C256.759 177.62 259.419 179.53 262.459 179.75C264.269 179.88 266.489 179.63 269.079 178.58C270.089 178.17 270.499 176.96 269.999 176L268.429 172.98C268.049 172.25 267.239 171.84 266.429 172C265.229 172.24 263.469 172.37 262.399 171.45C261.479 170.66 260.329 168.78 259.449 167.18C259.449 167.18 259.169 166.68 258.769 165.92L258.739 165.86L258.709 165.8C258.319 165.04 258.069 164.52 258.069 164.52C257.269 162.88 256.389 160.86 256.269 159.65C256.129 158.25 257.249 156.88 258.129 156.04C258.729 155.47 258.859 154.57 258.479 153.84L258.489 153.83Z" fill="url(#paint22_linear_186_334)"/>
<path d="M46.7792 90.2801L82.3992 270.13C83.8592 277.52 91.8492 281.59 98.6892 278.44L154.739 252.63C160.579 249.94 163.799 243.59 162.529 237.29L132.429 88.2901C131.259 82.4901 126.169 78.3301 120.249 78.3301H56.5892C50.2892 78.3301 45.5492 84.0901 46.7792 90.2801Z" fill="#002D4F"/>
<path d="M156.119 241.22L137.619 249.28L107.859 262.25L99.8388 265.75C96.4388 267.24 92.5289 265.2 91.7989 261.56L88.9188 247.26L79.6889 201.38L67.3989 140.32L60.7489 107.29L57.0189 88.7301C56.5289 86.3201 58.3689 84.0701 60.8289 84.0701H86.7189L86.8889 84.5501C87.5589 86.4501 89.3689 87.7301 91.3889 87.7301H105.559C107.219 87.7301 108.409 86.1101 107.909 84.5301L107.769 84.0701H123.819C126.469 84.0701 128.739 85.9301 129.269 88.5201L135.389 118.53L149.119 185.8L155.399 216.6L159.209 235.27C159.719 237.73 158.429 240.22 156.119 241.22Z" fill="url(#paint23_linear_186_334)"/>
<path opacity="0.37" d="M137.619 249.28L107.859 262.25L88.9194 247.26L79.6895 201.38L137.619 249.28Z" fill="white"/>
<path opacity="0.37" d="M155.4 216.6L67.4 140.32L60.75 107.29L149.12 185.8L155.4 216.6Z" fill="white"/>
<path opacity="0.37" d="M135.39 118.53L102.85 87.7301H105.56C107.22 87.7301 108.41 86.1101 107.91 84.5301L107.77 84.0701H123.82C126.47 84.0701 128.74 85.9301 129.27 88.5201L135.39 118.53Z" fill="white"/>
<path d="M194.745 198.457C216.478 176.724 216.478 141.488 194.745 119.756C173.012 98.023 137.777 98.023 116.044 119.756C94.3112 141.488 94.3112 176.724 116.044 198.457C137.777 220.189 173.012 220.189 194.745 198.457Z" fill="url(#paint24_linear_186_334)"/>
<path d="M155.41 214.75C162.352 214.75 167.98 189.835 167.98 159.1C167.98 128.365 162.352 103.45 155.41 103.45C148.468 103.45 142.84 128.365 142.84 159.1C142.84 189.835 148.468 214.75 155.41 214.75Z" stroke="white" stroke-width="1.02" stroke-miterlimit="10"/>
<path d="M155.41 173.44C186.144 173.44 211.06 167.812 211.06 160.87C211.06 153.928 186.144 148.3 155.41 148.3C124.675 148.3 99.7598 153.928 99.7598 160.87C99.7598 167.812 124.675 173.44 155.41 173.44Z" stroke="white" stroke-width="1.02" stroke-miterlimit="10"/>
<path d="M155.059 214.75C169.761 214.75 181.679 189.835 181.679 159.1C181.679 128.365 169.761 103.45 155.059 103.45C140.358 103.45 128.439 128.365 128.439 159.1C128.439 189.835 140.358 214.75 155.059 214.75Z" stroke="white" stroke-width="1.02" stroke-miterlimit="10"/>
<path d="M155.409 214.75C177.611 214.75 195.609 189.835 195.609 159.1C195.609 128.365 177.611 103.45 155.409 103.45C133.207 103.45 115.209 128.365 115.209 159.1C115.209 189.835 133.207 214.75 155.409 214.75Z" stroke="white" stroke-width="1.02" stroke-miterlimit="10"/>
</g>
<defs>
<linearGradient id="paint0_linear_186_334" x1="23.5391" y1="170.6" x2="306.959" y2="170.6" gradientUnits="userSpaceOnUse">
<stop stop-color="white"/>
<stop offset="1" stop-color="#A6CBD5"/>
</linearGradient>
<linearGradient id="paint1_linear_186_334" x1="146.22" y1="72.7699" x2="0" y2="72.7699" gradientUnits="userSpaceOnUse">
<stop stop-color="#A6CBD5"/>
<stop offset="1" stop-color="white"/>
</linearGradient>
<linearGradient id="paint2_linear_186_334" x1="179.859" y1="271.75" x2="326.089" y2="271.75" gradientUnits="userSpaceOnUse">
<stop stop-color="#A6CBD5"/>
<stop offset="1" stop-color="white"/>
</linearGradient>
<linearGradient id="paint3_linear_186_334" x1="200.1" y1="216.47" x2="214.58" y2="216.47" gradientUnits="userSpaceOnUse">
<stop stop-color="white"/>
<stop offset="1" stop-color="#A6CBD5"/>
</linearGradient>
<linearGradient id="paint4_linear_186_334" x1="16.8496" y1="146.58" x2="31.3196" y2="146.58" gradientUnits="userSpaceOnUse">
<stop stop-color="white"/>
<stop offset="1" stop-color="#A6CBD5"/>
</linearGradient>
<linearGradient id="paint5_linear_186_334" x1="8.12914" y1="184.68" x2="41.6991" y2="184.68" gradientUnits="userSpaceOnUse">
<stop stop-color="white"/>
<stop offset="1" stop-color="#A6CBD5"/>
</linearGradient>
<linearGradient id="paint6_linear_186_334" x1="-21.1511" y1="190.37" x2="41.4189" y2="182.23" gradientUnits="userSpaceOnUse">
<stop stop-color="white"/>
<stop offset="1" stop-color="#A6CBD5"/>
</linearGradient>
<linearGradient id="paint7_linear_186_334" x1="205.801" y1="252.96" x2="257.241" y2="246.22" gradientUnits="userSpaceOnUse">
<stop stop-color="white"/>
<stop offset="1" stop-color="#A6CBD5"/>
</linearGradient>
<linearGradient id="paint8_linear_186_334" x1="205.801" y1="263.46" x2="257.241" y2="256.72" gradientUnits="userSpaceOnUse">
<stop stop-color="white"/>
<stop offset="1" stop-color="#A6CBD5"/>
</linearGradient>
<linearGradient id="paint9_linear_186_334" x1="297.81" y1="168.53" x2="309.76" y2="166.96" gradientUnits="userSpaceOnUse">
<stop stop-color="white"/>
<stop offset="1" stop-color="#A6CBD5"/>
</linearGradient>
<linearGradient id="paint10_linear_186_334" x1="75.5996" y1="317.12" x2="102.99" y2="317.12" gradientUnits="userSpaceOnUse">
<stop stop-color="white"/>
<stop offset="1" stop-color="#A6CBD5"/>
</linearGradient>
<linearGradient id="paint11_linear_186_334" x1="15.8401" y1="256.98" x2="21.6201" y2="256.98" gradientUnits="userSpaceOnUse">
<stop stop-color="white"/>
<stop offset="1" stop-color="#A6CBD5"/>
</linearGradient>
<linearGradient id="paint12_linear_186_334" x1="25.5002" y1="263.34" x2="31.2802" y2="263.34" gradientUnits="userSpaceOnUse">
<stop stop-color="white"/>
<stop offset="1" stop-color="#A6CBD5"/>
</linearGradient>
<linearGradient id="paint13_linear_186_334" x1="36.041" y1="268.2" x2="41.831" y2="268.2" gradientUnits="userSpaceOnUse">
<stop stop-color="white"/>
<stop offset="1" stop-color="#A6CBD5"/>
</linearGradient>
<linearGradient id="paint14_linear_186_334" x1="15.8398" y1="275.95" x2="41.8298" y2="275.95" gradientUnits="userSpaceOnUse">
<stop stop-color="white"/>
<stop offset="1" stop-color="#A6CBD5"/>
</linearGradient>
<linearGradient id="paint15_linear_186_334" x1="204.41" y1="45.7501" x2="255.76" y2="45.7501" gradientUnits="userSpaceOnUse">
<stop stop-color="white"/>
<stop offset="1" stop-color="#A6CBD5"/>
</linearGradient>
<linearGradient id="paint16_linear_186_334" x1="222.355" y1="77.2423" x2="234.635" y2="24.3923" gradientUnits="userSpaceOnUse">
<stop stop-color="white"/>
<stop offset="1" stop-color="#A6CBD5"/>
</linearGradient>
<linearGradient id="paint17_linear_186_334" x1="139.13" y1="336.8" x2="201.01" y2="301.91" gradientUnits="userSpaceOnUse">
<stop stop-color="#009DE0"/>
<stop offset="1" stop-color="#F7EA3A"/>
</linearGradient>
<linearGradient id="paint18_linear_186_334" x1="140.741" y1="74.64" x2="145.881" y2="14.93" gradientUnits="userSpaceOnUse">
<stop stop-color="#009DE0"/>
<stop offset="1" stop-color="#F7EA3A"/>
</linearGradient>
<linearGradient id="paint19_linear_186_334" x1="135.13" y1="95.93" x2="129.99" y2="36.22" gradientUnits="userSpaceOnUse">
<stop stop-color="#009DE0"/>
<stop offset="1" stop-color="#F7EA3A"/>
</linearGradient>
<linearGradient id="paint20_linear_186_334" x1="242.609" y1="167.86" x2="283.709" y2="167.86" gradientUnits="userSpaceOnUse">
<stop stop-color="white"/>
<stop offset="1" stop-color="#A6CBD5"/>
</linearGradient>
<linearGradient id="paint21_linear_186_334" x1="260.069" y1="203.2" x2="258.929" y2="104.91" gradientUnits="userSpaceOnUse">
<stop stop-color="#009DE0"/>
<stop offset="1" stop-color="#F7EA3A"/>
</linearGradient>
<linearGradient id="paint22_linear_186_334" x1="249.061" y1="173.166" x2="262.736" y2="163.632" gradientUnits="userSpaceOnUse">
<stop stop-color="white"/>
<stop offset="1" stop-color="white"/>
</linearGradient>
<linearGradient id="paint23_linear_186_334" x1="56.9389" y1="175.16" x2="159.319" y2="175.16" gradientUnits="userSpaceOnUse">
<stop stop-color="white"/>
<stop offset="1" stop-color="#A6CBD5"/>
</linearGradient>
<linearGradient id="paint24_linear_186_334" x1="63.5035" y1="184.37" x2="223.503" y2="140.37" gradientUnits="userSpaceOnUse">
<stop stop-color="#009DE0"/>
<stop offset="1" stop-color="#F7EA3A"/>
</linearGradient>
<clipPath id="clip0_186_334">
<rect width="326.09" height="343.66" fill="white"/>
</clipPath>
</defs>
</svg>
