<svg width="36" height="29" viewBox="0 0 36 29" fill="none" xmlns="http://www.w3.org/2000/svg">
<path d="M24.383 13.6975C24.5004 13.816 24.5662 13.976 24.5662 14.1428C24.5662 14.3096 24.5004 14.4696 24.383 14.5881L17.969 20.9865C17.1485 21.807 16.0356 22.268 14.8752 22.268C13.7148 22.268 12.602 21.807 11.7815 20.9865C10.961 20.166 10.5 19.0532 10.5 17.8928C10.5 16.7324 10.961 15.6195 11.7815 14.799L19.5393 6.93965C19.8263 6.637 20.171 6.39488 20.5531 6.22755C20.9352 6.06023 21.3469 5.97109 21.764 5.96538C22.181 5.95967 22.595 6.03752 22.9815 6.19433C23.3681 6.35114 23.7193 6.58375 24.0145 6.87843C24.3097 7.17311 24.5429 7.5239 24.7004 7.91014C24.8579 8.29637 24.9365 8.71023 24.9315 9.12731C24.9265 9.54439 24.8381 9.95626 24.6715 10.3386C24.5048 10.721 24.2633 11.0661 23.9612 11.3537L16.2033 19.2131C16.0299 19.3892 15.8232 19.5289 15.5951 19.6241C15.3671 19.7194 15.1224 19.7682 14.8752 19.7678C14.5037 19.7687 14.1403 19.6592 13.8311 19.4532C13.5219 19.2473 13.2809 18.9541 13.1386 18.6109C12.9963 18.2678 12.9592 17.89 13.0319 17.5257C13.1046 17.1614 13.2839 16.8269 13.5471 16.5646L20.0549 9.95527C20.1112 9.89211 20.1798 9.84103 20.2564 9.80515C20.3331 9.76927 20.4162 9.74933 20.5008 9.74653C20.5853 9.74373 20.6696 9.75814 20.7485 9.78888C20.8273 9.81962 20.8991 9.86605 20.9594 9.92535C21.0198 9.98466 21.0675 10.0556 21.0996 10.1339C21.1318 10.2122 21.1477 10.2962 21.1464 10.3808C21.1451 10.4654 21.1266 10.5489 21.0921 10.6261C21.0575 10.7034 21.0077 10.7728 20.9455 10.8303L14.4377 17.4475C14.3785 17.5055 14.3314 17.5748 14.2992 17.6513C14.267 17.7277 14.2504 17.8098 14.2502 17.8928C14.2493 18.0591 14.3138 18.219 14.4299 18.3381C14.5499 18.4528 14.7093 18.5171 14.8752 18.5178C15.0415 18.5187 15.2015 18.4542 15.3205 18.3381L23.0705 10.4709C23.2466 10.2975 23.3864 10.0907 23.4816 9.86268C23.5768 9.63464 23.6257 9.3899 23.6252 9.14277C23.6261 8.77126 23.5167 8.40786 23.3107 8.09866C23.1047 7.78947 22.8116 7.54844 22.4684 7.40615C22.1252 7.26385 21.7475 7.22671 21.3832 7.29944C21.0188 7.37217 20.6843 7.55149 20.4221 7.81465L12.6721 15.6818C12.3695 15.9689 12.1273 16.3136 11.96 16.6957C11.7927 17.0777 11.7035 17.4894 11.6978 17.9065C11.6921 18.3236 11.77 18.7376 11.9268 19.1241C12.0836 19.5106 12.3162 19.8618 12.6109 20.157C12.9056 20.4522 13.2564 20.6854 13.6426 20.8429C14.0288 21.0004 14.4427 21.079 14.8598 21.074C15.2768 21.0691 15.6887 20.9807 16.0711 20.814C16.4535 20.6474 16.7986 20.4058 17.0862 20.1037L23.4924 13.6975C23.6109 13.5801 23.7709 13.5143 23.9377 13.5143C24.1045 13.5143 24.2645 13.5801 24.383 13.6975Z" fill="#40493B"/>
</svg>
