<svg width="64" height="64" viewBox="0 0 64 64" fill="none" xmlns="http://www.w3.org/2000/svg">
<g opacity="0.68" clip-path="url(#clip0_186_419)">
<path d="M44 4C45.0609 4 46.0783 4.42143 46.8284 5.17157C47.5786 5.92172 48 6.93913 48 8V56C48 57.0609 47.5786 58.0783 46.8284 58.8284C46.0783 59.5786 45.0609 60 44 60H20C18.9391 60 17.9217 59.5786 17.1716 58.8284C16.4214 58.0783 16 57.0609 16 56V8C16 6.93913 16.4214 5.92172 17.1716 5.17157C17.9217 4.42143 18.9391 4 20 4H44ZM20 0C17.8783 0 15.8434 0.842855 14.3431 2.34315C12.8429 3.84344 12 5.87827 12 8V56C12 58.1217 12.8429 60.1566 14.3431 61.6569C15.8434 63.1571 17.8783 64 20 64H44C46.1217 64 48.1566 63.1571 49.6569 61.6569C51.1571 60.1566 52 58.1217 52 56V8C52 5.87827 51.1571 3.84344 49.6569 2.34315C48.1566 0.842855 46.1217 0 44 0L20 0Z" fill="#68BF44"/>
<path d="M32 56C33.0609 56 34.0783 55.5786 34.8284 54.8284C35.5786 54.0783 36 53.0609 36 52C36 50.9391 35.5786 49.9217 34.8284 49.1716C34.0783 48.4214 33.0609 48 32 48C30.9391 48 29.9217 48.4214 29.1716 49.1716C28.4214 49.9217 28 50.9391 28 52C28 53.0609 28.4214 54.0783 29.1716 54.8284C29.9217 55.5786 30.9391 56 32 56Z" fill="#68BF44"/>
</g>
<defs>
<clipPath id="clip0_186_419">
<rect width="64" height="64" fill="white"/>
</clipPath>
</defs>
</svg>
