<svg width="64" height="64" viewBox="0 0 64 64" fill="none" xmlns="http://www.w3.org/2000/svg">
<g opacity="0.68">
<path d="M12 8V52H36V8H12ZM10 4H38C38.5304 4 39.0391 4.21071 39.4142 4.58579C39.7893 4.96086 40 5.46957 40 6V54C40 54.5304 39.7893 55.0391 39.4142 55.4142C39.0391 55.7893 38.5304 56 38 56H10C9.46957 56 8.96086 55.7893 8.58579 55.4142C8.21071 55.0391 8 54.5304 8 54V6C8 5.46957 8.21071 4.96086 8.58579 4.58579C8.96086 4.21071 9.46957 4 10 4Z" fill="#68BF44"/>
<path d="M16 16H32V20H16V16ZM16 28H32V32H16V28ZM16 40H32V44H16V40ZM40 32H48V36H40V32ZM40 40H48V44H40V40ZM4 52H60V56H4V52Z" fill="#68BF44"/>
<path d="M40 24V52H52V24H40ZM38 20H54C54.5304 20 55.0391 20.2107 55.4142 20.5858C55.7893 20.9609 56 21.4696 56 22V54C56 54.5304 55.7893 55.0391 55.4142 55.4142C55.0391 55.7893 54.5304 56 54 56H38C37.4696 56 36.9609 55.7893 36.5858 55.4142C36.2107 55.0391 36 54.5304 36 54V22C36 21.4696 36.2107 20.9609 36.5858 20.5858C36.9609 20.2107 37.4696 20 38 20Z" fill="#68BF44"/>
</g>
</svg>
